<svg xmlns="http://www.w3.org/2000/svg" viewBox="0 0 32 32" fill="none">
  <path d="M2 2L2 12C2 14 3 15 5 15L12 15L12 2C12 1 11 0 10 0L5 0C3 0 2 1 2 2Z" fill="#7a5a18"/>
  <path d="M30 2L30 12C30 14 29 15 27 15L20 15L20 2C20 1 21 0 22 0L27 0C29 0 30 1 30 2Z" fill="#7a5a18"/>
  <path d="M2 30L2 20C2 18 3 17 5 17L12 17L12 30C12 31 11 32 10 32L5 32C3 32 2 31 2 30Z" fill="#7a5a18"/>
  <path d="M30 30L30 20C30 18 29 17 27 17L20 17L20 30C20 31 21 32 22 32L27 32C29 32 30 31 30 30Z" fill="#7a5a18"/>
</svg>